<?xml version="1.0" standalone="no"?>
<!DOCTYPE svg PUBLIC "-//W3C//DTD SVG 20010904//EN"
 "http://www.w3.org/TR/2001/REC-SVG-20010904/DTD/svg10.dtd">
<svg version="1.0" xmlns="http://www.w3.org/2000/svg"
 width="264.000000pt" height="280.000000pt" viewBox="0 0 264.000000 280.000000"
 preserveAspectRatio="xMidYMid meet">

<g transform="translate(0.000000,280.000000) scale(0.100000,-0.100000)"
fill="#000000" stroke="none">
<path d="M0 1400 l0 -1400 1320 0 1320 0 0 1400 0 1400 -1320 0 -1320 0 0
-1400z m1990 1020 c0 -6 -9 -29 -20 -52 -11 -23 -22 -57 -25 -77 -3 -20 -11
-62 -17 -94 -10 -54 -9 -60 17 -108 15 -28 25 -52 23 -55 -3 -2 -15 14 -27 36
-12 22 -29 40 -38 40 -12 0 -13 3 -3 15 6 8 9 23 5 34 -3 11 -1 29 4 40 6 11
8 27 4 37 -9 25 -45 -70 -37 -102 5 -18 2 -24 -10 -24 -21 0 -22 -63 -2 -111
7 -19 16 -47 20 -64 l7 -30 -21 33 c-11 18 -25 52 -30 77 -13 59 4 191 31 227
10 15 19 31 19 35 0 14 64 138 75 145 14 11 25 10 25 -2z m-1342 -12 c20 -26
92 -176 98 -206 6 -31 6 -31 -32 -28 -36 3 -40 6 -48 42 -8 38 -44 167 -54
192 -2 6 3 12 11 12 8 0 19 -6 25 -12z m99 -432 c-29 -55 -36 -38 -12 29 8 22
15 65 16 95 l2 55 10 -64 c9 -59 8 -67 -16 -115z m-117 39 c-6 -15 -13 -25
-16 -23 -2 3 1 17 7 32 16 34 23 27 9 -9z m748 -149 c17 -45 38 -112 47 -150
19 -77 19 -78 -47 -280 l-29 -89 27 -28 c15 -16 33 -29 39 -29 6 0 28 18 49
39 l39 40 -13 60 c-24 113 16 228 98 281 62 41 81 73 93 157 5 37 12 69 14 72
3 3 13 -3 23 -12 14 -15 17 -35 16 -115 -1 -128 -22 -174 -86 -190 -69 -18
-131 -100 -120 -159 7 -36 27 -39 64 -8 72 59 278 269 279 284 0 10 2 12 6 4
2 -7 -5 -25 -16 -39 -25 -32 -27 -50 -4 -58 14 -6 10 -13 -23 -47 -21 -23 -73
-66 -114 -96 -93 -69 -140 -120 -140 -153 0 -15 13 -40 30 -58 32 -36 47 -34
84 7 35 38 111 80 166 91 85 18 145 63 180 136 17 34 30 73 30 86 0 13 7 47
15 75 18 62 45 115 45 91 0 -9 -4 -20 -10 -23 -10 -6 -7 -88 5 -125 3 -11 14
-20 24 -20 10 0 20 -3 24 -6 8 -8 -13 -63 -37 -99 -27 -39 -118 -135 -129
-135 -4 0 -37 -13 -72 -30 -35 -16 -68 -30 -74 -30 -19 0 -136 -57 -150 -73
-11 -15 -10 -18 15 -28 84 -33 112 -39 174 -39 95 0 114 -27 43 -64 -49 -25
-83 -20 -177 25 -47 23 -92 39 -100 36 -8 -3 -27 -31 -41 -62 -24 -51 -25 -58
-12 -78 8 -12 34 -58 57 -102 24 -44 69 -126 101 -182 33 -57 59 -112 59 -123
0 -28 -32 -26 -68 5 -17 14 -34 25 -40 25 -18 0 -121 122 -146 173 -15 31 -30
85 -36 132 -6 44 -13 89 -16 100 -11 35 -85 128 -95 118 -5 -5 -30 -43 -55
-83 -52 -85 -52 -94 -8 -205 41 -104 40 -214 -5 -350 -18 -55 -36 -125 -40
-155 -4 -39 -10 -55 -21 -55 -11 0 -17 17 -22 64 -4 35 -22 97 -40 140 -29 69
-32 85 -33 181 0 95 3 113 33 193 19 49 32 97 29 107 -8 30 -91 159 -103 160
-6 0 -29 -23 -51 -50 -37 -46 -42 -58 -53 -138 -20 -147 -33 -177 -121 -264
-42 -43 -80 -78 -83 -78 -4 0 -19 -11 -34 -25 -26 -24 -62 -34 -62 -16 0 29
84 194 167 329 43 70 63 113 63 135 0 36 -43 107 -64 107 -7 0 -53 -19 -101
-41 -76 -36 -94 -41 -133 -35 -47 6 -82 29 -82 53 0 7 3 13 8 14 4 0 46 4 93
8 88 8 179 37 179 58 0 20 -52 49 -130 73 -79 24 -84 26 -140 55 -105 54 -188
159 -195 245 -1 14 -4 32 -8 40 -3 8 -8 33 -10 55 -3 22 -8 48 -12 58 -4 10
-3 17 4 17 6 0 11 -8 11 -18 0 -23 19 -42 42 -42 21 0 23 12 7 42 -8 16 -8 22
2 29 22 13 49 -42 65 -131 7 -45 21 -96 29 -113 35 -72 101 -123 204 -157 66
-22 104 -45 158 -94 32 -29 33 -29 54 -10 21 19 49 66 49 82 0 14 -102 110
-214 202 -89 72 -146 129 -146 144 0 8 10 11 30 8 35 -5 39 11 14 59 -8 17
-13 38 -9 47 5 15 7 15 14 2 5 -8 12 -33 16 -55 6 -33 25 -58 108 -144 101
-103 191 -181 208 -181 4 0 13 9 18 19 24 45 -39 139 -108 160 -52 15 -71 40
-87 113 -17 82 -17 131 0 173 27 63 56 38 56 -49 0 -55 41 -121 90 -146 22
-11 51 -37 65 -58 40 -60 58 -193 33 -247 -10 -22 -8 -30 19 -68 40 -54 61
-57 96 -12 l28 35 -35 78 c-54 121 -64 184 -42 287 17 84 61 193 99 248 l19
28 29 -27 c17 -16 40 -60 57 -108z m-748 54 c27 18 41 12 34 -15 -4 -16 -2
-25 6 -25 7 0 10 7 6 15 -3 8 -1 15 3 15 5 0 16 3 25 6 12 5 16 0 16 -19 0
-45 -9 -57 -36 -47 -29 12 -51 4 -65 -22 -8 -14 -8 -23 0 -31 6 -6 11 -18 11
-26 0 -27 -17 2 -32 55 -8 28 -11 59 -7 70 4 10 9 33 10 49 l2 30 6 -32 c5
-26 9 -30 21 -23z m-239 -2 c16 -18 29 -36 29 -40 0 -3 -16 -6 -35 -5 -28 2
-36 7 -45 31 -19 54 7 61 51 14z m1872 15 c2 -5 -4 -26 -13 -48 -15 -34 -19
-37 -25 -21 -5 11 -3 21 6 27 8 5 9 9 3 9 -6 0 -27 -16 -47 -37 -20 -20 -37
-31 -37 -25 0 7 4 12 9 12 5 0 13 10 16 23 15 46 73 86 88 60z m-266 -100 c-3
-10 -5 -4 -5 12 0 17 2 24 5 18 2 -7 2 -21 0 -30z m-1543 -19 c5 -14 4 -15 -9
-4 -17 14 -19 20 -6 20 5 0 12 -7 15 -16z m1520 -46 c-7 -23 -60 -97 -78 -110
-23 -16 -16 4 12 37 18 19 39 49 47 65 18 35 29 40 19 8z m220 -55 c-4 -32 -8
-60 -10 -62 -1 -1 -12 4 -24 12 l-22 15 21 11 c14 8 21 22 21 40 0 25 7 41 17
41 2 0 0 -26 -3 -57z"/>
<path d="M1275 1820 c-33 -64 -55 -144 -55 -201 0 -46 7 -73 33 -124 17 -35
38 -65 45 -65 7 0 31 37 53 83 36 75 39 87 33 137 -6 53 -51 161 -79 189 -11
11 -16 8 -30 -19z"/>
<path d="M1707 1843 c-2 -5 -7 -24 -11 -44 -5 -26 -3 -38 7 -42 10 -4 13 8 14
44 1 48 -1 57 -10 42z"/>
<path d="M895 1808 c-12 -32 -10 -63 5 -63 9 0 15 11 16 33 2 33 -12 54 -21
30z"/>
<path d="M1610 1645 c-7 -8 -8 -15 -2 -15 5 0 15 7 22 15 7 8 8 15 2 15 -5 0
-15 -7 -22 -15z"/>
<path d="M1920 1370 c0 -5 7 -10 16 -10 8 0 12 5 9 10 -3 6 -10 10 -16 10 -5
0 -9 -4 -9 -10z"/>
<path d="M1031 1259 c-38 -48 -40 -52 -26 -78 29 -56 39 -56 84 4 l42 55 -27
35 c-14 19 -28 35 -29 35 -2 0 -22 -23 -44 -51z"/>
<path d="M1495 1276 c-29 -38 -29 -39 24 -105 l35 -43 23 28 c13 16 23 35 23
42 0 14 -54 97 -69 107 -6 3 -22 -10 -36 -29z"/>
<path d="M1252 1264 l-33 -34 36 -65 c20 -36 40 -65 43 -65 4 0 23 29 41 65
l35 65 -34 35 c-19 19 -39 35 -44 34 -6 0 -26 -16 -44 -35z"/>
<path d="M952 879 c-29 -50 -52 -92 -52 -95 0 -2 6 -4 13 -4 23 0 75 64 91
113 36 108 14 102 -52 -14z"/>
<path d="M1580 948 c1 -63 71 -178 108 -178 22 0 10 29 -44 114 -47 73 -64 90
-64 64z"/>
<path d="M1287 833 c-21 -38 -39 -122 -34 -164 7 -56 33 -112 50 -106 17 5 38
84 38 142 1 75 -35 160 -54 128z"/>
<path d="M817 674 c-8 -8 1 -24 14 -24 5 0 9 7 9 15 0 15 -12 20 -23 9z"/>
</g>
</svg>
